<svg width="620" height="412" viewBox="0 0 620 412" fill="none" xmlns="http://www.w3.org/2000/svg" xmlns:xlink="http://www.w3.org/1999/xlink">
<g transform="translate(56, 56)"><!-- https://grabient.com/HQBgrAzANKAsAcMT0cAjLAnDNYDsOsATDEUSKWicGWlBMHmtA3kS8AGybShgVpQIAUIoggA?style=linearSwatches&steps=13&angle=90 -->
            <defs>
              <clipPath id="bounds_0">
                <rect x="0" y="0" width="508" height="300" />
              </clipPath>
            </defs>
            <g clip-path="url(#bounds_0)">
        
              <path d="M 0.000,1166.000 L 0.000,-866.000 L 39.077,-866.000 L 39.077,1166.000 Z" fill="rgb(18, 18, 22)" fill-opacity="1.000" />
              <path d="M 39.077,1166.000 L 39.077,-866.000 L 78.154,-866.000 L 78.154,1166.000 Z" fill="rgb(22, 23, 26)" fill-opacity="1.000" />
              <path d="M 78.154,1166.000 L 78.154,-866.000 L 117.231,-866.000 L 117.231,1166.000 Z" fill="rgb(26, 27, 31)" fill-opacity="1.000" />
              <path d="M 117.231,1166.000 L 117.231,-866.000 L 156.308,-866.000 L 156.308,1166.000 Z" fill="rgb(31, 32, 35)" fill-opacity="1.000" />
              <path d="M 156.308,1166.000 L 156.308,-866.000 L 195.385,-866.000 L 195.385,1166.000 Z" fill="rgb(35, 36, 39)" fill-opacity="1.000" />
              <path d="M 195.385,1166.000 L 195.385,-866.000 L 234.462,-866.000 L 234.462,1166.000 Z" fill="rgb(39, 40, 43)" fill-opacity="1.000" />
              <path d="M 234.462,1166.000 L 234.462,-866.000 L 273.538,-866.000 L 273.538,1166.000 Z" fill="rgb(43, 44, 47)" fill-opacity="1.000" />
              <path d="M 273.538,1166.000 L 273.538,-866.000 L 312.615,-866.000 L 312.615,1166.000 Z" fill="rgb(47, 48, 51)" fill-opacity="1.000" />
              <path d="M 312.615,1166.000 L 312.615,-866.000 L 351.692,-866.000 L 351.692,1166.000 Z" fill="rgb(50, 51, 55)" fill-opacity="1.000" />
              <path d="M 351.692,1166.000 L 351.692,-866.000 L 390.769,-866.000 L 390.769,1166.000 Z" fill="rgb(54, 55, 58)" fill-opacity="1.000" />
              <path d="M 390.769,1166.000 L 390.769,-866.000 L 429.846,-866.000 L 429.846,1166.000 Z" fill="rgb(56, 57, 61)" fill-opacity="1.000" />
              <path d="M 429.846,1166.000 L 429.846,-866.000 L 468.923,-866.000 L 468.923,1166.000 Z" fill="rgb(59, 60, 64)" fill-opacity="1.000" />
              <path d="M 468.923,1166.000 L 468.923,-866.000 L 508.000,-866.000 L 508.000,1166.000 Z" fill="rgb(61, 62, 66)" fill-opacity="1.000" />
            </g></g>
</svg>